<svg width="171" height="115" viewBox="0 0 171 115" fill="none" xmlns="http://www.w3.org/2000/svg">
<path d="M104.233 114.99C101.949 114.559 101.044 113.126 100.602 111.165C99.805 107.631 99.5464 104.13 100.667 100.618C100.818 100.144 100.829 99.5078 100.635 99.0661C99.4279 96.1787 99.0723 93.0974 98.6844 90.0592C98.318 87.258 98.6521 84.4353 99.374 81.6879C99.8158 79.9965 100.096 78.3157 100.042 76.5596C99.9666 74.3833 99.9558 72.207 99.9882 70.0307C100.01 68.4038 100.053 66.777 100.268 65.1717C100.559 63.06 100.376 60.9914 100.236 58.869C100.085 56.5203 99.6972 54.1931 99.9558 51.7583C100.258 48.9032 100.742 46.102 101.292 43.3008C101.561 41.9217 102.003 40.575 102.445 39.2498C102.973 37.6876 102.553 36.2224 101.949 34.8433C101.335 33.4643 101.001 32.0852 101.087 30.5877C101.184 28.8639 101.26 27.1293 101.335 25.4055C101.357 24.8668 101.367 24.3173 101.324 23.7786C101.152 21.667 100.926 19.5661 100.786 17.4544C100.742 16.8726 100.785 16.2262 101.012 15.6983C102.24 12.6277 101.109 9.85884 100.02 7.05765C99.4602 5.62473 98.2642 4.7305 97.2406 3.69621C96.9281 3.38377 96.3355 3.373 95.9045 3.15752C95.5597 2.98514 95.2795 2.70502 94.7192 2.29562C96.3355 1.90776 97.5423 2.10169 98.6197 2.72657C100.161 3.6208 101.658 4.61199 103.113 5.6355C103.522 5.92639 103.932 6.43276 104.05 6.90681C104.611 9.26628 105.332 11.6257 104.718 14.1037C104.611 14.5131 104.664 14.9656 104.664 15.4074C104.675 17.0342 104.729 18.6718 104.708 20.2987C104.664 24.0372 104.578 27.7865 104.567 31.525C104.567 32.2576 104.729 33.0549 105.052 33.7013C106.205 36.0285 106.184 38.4957 105.602 40.8444C104.88 43.7748 104.007 46.6838 103.684 49.6897C103.501 51.4027 103.479 53.1481 103.522 54.8719C103.609 58.1256 103.878 61.3685 103.921 64.6114C103.953 67.2618 103.716 69.9121 103.716 72.5625C103.716 74.2325 104.05 75.9024 104.018 77.5723C103.996 79.016 103.792 80.4813 103.479 81.8926C102.951 84.2306 102.456 86.5793 102.682 88.9495C102.919 91.5137 102.951 94.1209 103.889 96.5881C104.19 97.3854 104.427 98.2365 104.535 99.0877C104.621 99.7664 104.557 100.499 104.417 101.167C104.018 103.117 103.641 105.089 103.059 106.996C102.693 108.213 103.145 108.827 104.309 109.441C104.826 108.385 105.483 107.373 105.839 106.274C106.96 102.826 107.951 99.357 108.662 95.7801C109.136 93.4206 110.31 91.2012 111.097 88.8956C111.862 86.6439 112.541 84.3706 113.22 82.0866C113.371 81.5802 113.392 81.02 113.392 80.4813C113.392 78.3588 113.284 76.2364 113.371 74.1247C113.468 71.636 113.705 69.158 113.952 66.68C114.017 65.9905 114.286 65.3009 114.588 64.6761C115.461 62.8661 116.258 61.0022 117.336 59.3107C118.65 57.2529 118.575 55.0658 118.262 52.868C117.713 49.0863 117.465 45.3586 118.769 41.6524C119.308 40.1225 119.771 38.5495 120.073 36.955C120.471 34.8326 120.665 32.6778 120.967 30.5446C121.15 29.2625 121.506 27.9912 121.527 26.7091C121.549 25.0392 121.484 23.3369 121.161 21.71C120.644 19.0058 120.773 16.474 121.99 13.9529C122.443 13.0156 122.475 11.8628 122.594 10.7962C122.68 9.98813 122.594 9.16932 122.594 8.35051C122.583 6.15265 123.973 4.60121 126.182 4.33187C127.83 4.13794 128.154 4.21336 128.822 5.74324C129.285 6.79907 129.684 7.99497 129.705 9.13699C129.845 15.1703 129.867 21.2037 129.921 27.2478C129.921 27.8942 129.791 28.5407 129.738 29.1763C129.705 29.5534 129.673 29.9305 129.694 30.3076C129.781 32.527 129.878 34.7356 129.964 36.955C129.996 37.6014 130.093 38.2586 130.05 38.9051C129.856 41.4369 129.651 43.958 129.36 46.4791C129.134 48.4615 128.574 50.4331 128.542 52.4155C128.498 55.2705 128.822 58.1364 128.983 61.0022C129.016 61.487 129.059 61.9718 129.059 62.4674C129.005 67.4557 129.005 72.4548 128.833 77.4323C128.779 78.9191 128.261 80.3951 127.895 81.8711C127.712 82.6037 127.421 83.3148 127.184 84.0366C126.904 84.877 126.979 85.6419 127.69 86.2453C129.005 87.3657 129.371 88.8633 129.339 90.4794C129.296 92.7527 129.102 95.0259 129.123 97.2992C129.134 98.7429 129.457 100.187 129.565 101.641C129.662 103.149 129.813 104.679 129.673 106.166C129.501 107.955 129.36 109.721 129.791 111.478C130.093 112.717 129.436 113.697 128.897 114.677C128.628 115.173 127.593 115.098 127.216 114.451C126.645 113.471 125.686 112.598 126.096 111.208C126.268 110.605 126.096 109.915 126.139 109.258C126.203 108.289 126.182 107.287 126.43 106.36C127.012 104.238 126.451 102.158 126.322 100.068C126.203 98.1288 126.031 96.1787 125.966 94.2394C125.923 93.1405 125.816 92.1062 125.374 91.0719C124.684 89.4343 124.048 87.7644 123.564 86.0513C123.348 85.3187 123.424 84.4245 123.607 83.6595C124.113 81.5048 124.76 79.3823 125.32 77.2383C125.438 76.7751 125.482 76.2795 125.471 75.7947C125.438 71.7222 125.417 67.6496 125.32 63.5771C125.288 62.3381 124.932 61.1207 124.878 59.8817C124.749 56.8974 124.523 53.913 124.684 50.9394C124.792 48.9247 125.568 46.9423 125.891 44.9276C126.236 42.7406 126.494 40.5427 126.613 38.3341C126.775 35.0804 126.581 31.8051 126.893 28.5837C127.55 21.8609 127.324 15.1488 127.238 8.41515C127.238 8.25354 127.173 8.10271 127.087 7.7364C126.462 7.95187 125.891 8.1458 125.137 8.40438C125.137 9.53563 125.083 10.6669 125.148 11.7874C125.223 13.0694 124.975 14.2761 124.404 15.4074C123.445 17.2928 123.348 19.2105 123.951 21.2252C124.781 24.0156 124.824 26.8707 124.436 29.7473C124.135 31.9452 124.167 34.1861 123.79 36.3625C123.424 38.4849 122.831 40.575 122.131 42.6113C121.215 45.294 121.042 48.0197 121.204 50.7994C121.312 52.6848 121.43 54.581 121.57 56.4664C121.656 57.5869 121.387 58.6104 120.924 59.6124C120.04 61.5409 119.07 63.4263 118.295 65.3979C117.821 66.583 117.508 67.8759 117.368 69.1472C117.012 72.5302 116.581 75.9239 116.571 79.3177C116.571 83.3794 114.814 86.8701 113.532 90.5225C112.972 92.1062 112.272 93.6469 111.776 95.2522C111.431 96.3727 111.237 97.5686 111.151 98.7429C110.914 101.673 110.138 104.475 109.384 107.297C109.265 107.761 109.039 108.213 108.77 108.612C107.423 110.583 106.033 112.533 104.664 114.483C104.546 114.656 104.395 114.807 104.255 114.968L104.233 114.99Z" fill="white"/>
<path d="M27.4303 3.54538C28.7556 3.84705 29.8978 3.98711 30.9322 4.37497C33.1518 5.20455 35.4576 5.84021 37.3001 7.4886C38.5608 8.60908 38.7978 9.96658 38.5285 11.4749C38.2375 13.0587 37.8173 14.6209 37.4833 16.1939C37.3971 16.614 37.354 17.0665 37.4186 17.4867C37.6341 18.9735 37.9035 20.4603 38.1513 21.9471C38.3237 23.0137 38.4315 24.0803 38.647 25.1361C39.0026 26.8168 39.3797 28.4976 39.8107 30.1675C40.8989 34.3693 40.9851 38.5926 40.274 42.8698C40.0477 44.2489 39.94 45.671 39.9184 47.0716C39.8861 49.8944 39.9507 52.7279 39.9723 55.5506C39.9723 56.0247 40.0154 56.4987 40.0477 57.3714C40.5865 56.7573 40.9744 56.4233 41.2437 56.0139C41.7932 55.1628 42.5152 54.6025 43.431 54.15C44.8425 53.4605 46.2433 52.7063 47.4932 51.7798C48.7754 50.8317 50.133 50.2822 51.6954 50.3684C52.6651 50.4223 53.1176 49.9267 53.6348 49.2048C54.5615 47.912 54.3568 46.3929 54.6585 44.9923C55.1864 42.5897 55.014 40.1979 54.5184 37.763C54.2382 36.384 54.5615 34.8757 54.7339 33.432C54.8955 32.0421 55.3373 30.6846 55.4235 29.2948C55.4773 28.2929 55.111 27.2801 55.0032 26.2566C54.68 22.9706 54.2598 19.6522 55.0787 16.4093C55.7036 13.9637 55.9299 11.5288 55.9299 9.04003C55.9299 7.33777 56.6518 6.12033 58.2249 5.24765C60.7032 3.85782 63.4831 3.63157 66.1337 2.90973C66.3923 2.84508 66.7155 3.04979 67.0927 3.14675C66.9526 3.373 66.9095 3.55615 66.8017 3.6208C64.9485 4.63354 63.1167 5.68937 61.2204 6.61592C60.0351 7.19771 59.4856 7.9842 59.6149 9.30938C59.7011 10.279 59.6364 11.2702 59.6688 12.2399C59.7226 13.9852 59.5826 15.6444 58.9361 17.3359C58.3973 18.758 58.3111 20.4064 58.2573 21.9578C58.1603 24.4035 58.3219 26.8492 58.2573 29.2948C58.2142 30.9109 57.934 32.5162 57.8694 34.1323C57.8263 35.2527 57.7832 36.4271 58.0633 37.4937C58.7421 40.004 58.99 42.4928 58.5051 45.0462C58.4512 45.3586 58.4404 45.7034 58.4728 46.0158C58.8176 48.72 57.7077 50.9933 56.4255 53.2343C55.8221 54.3009 55.014 54.9473 53.721 55.0012C52.0833 55.0658 50.5424 55.4106 49.1956 56.5095C48.4844 57.0913 47.5255 57.3606 46.5665 57.8239C47.3639 58.5673 48.1396 58.4811 48.8723 58.4272C51.1889 58.2333 52.6759 59.2568 53.6133 61.3469C54.1197 62.4782 54.7985 63.5448 55.4127 64.6222C56.1238 65.872 56.5441 67.154 56.5548 68.6301C56.5764 70.9033 56.7811 73.1658 56.8996 75.4391C56.9212 75.7623 56.9858 76.1179 56.8996 76.4195C55.9838 79.4685 57.2336 82.162 58.3327 84.8662C58.9469 86.3745 59.6795 87.8182 60.326 89.3158C60.5415 89.8006 60.757 90.3393 60.7678 90.8565C60.8109 92.9574 61.048 95.0798 60.1429 97.1161C59.9597 97.5362 60.0782 98.1719 60.2398 98.6352C60.8001 100.273 61.382 101.9 62.0823 103.483C63.1167 105.843 63.5154 108.353 63.6986 110.874C63.7632 111.758 63.2353 112.749 62.7504 113.557C62.4271 114.106 61.6837 113.848 61.3389 113.417C60.8432 112.792 60.4338 112.07 60.0998 111.337C59.4533 109.915 58.9037 108.45 58.3004 106.996C57.5569 105.196 56.8026 103.386 56.0484 101.587C55.0787 99.2924 54.9709 97.0083 55.8652 94.6381C56.404 93.1944 56.2531 91.7291 55.6713 90.2208C54.5723 87.3442 53.5917 84.4029 52.7405 81.4401C52.4604 80.4489 52.6866 79.2854 52.7513 78.208C52.8483 76.6458 53.0422 75.0836 53.15 73.5214C53.2038 72.7672 53.15 72.0023 53.1284 71.2373C53.0925 68.314 52.349 65.6098 50.898 63.1246C50.5424 62.5105 50.1222 62.155 49.368 62.1442C47.9565 62.1227 46.5557 61.9287 45.1442 61.9395C43.528 61.9395 41.9225 62.1011 40.1878 62.1873C40.1231 62.7152 40.0369 63.1246 40.0369 63.534C40.0369 65.7104 40.1555 67.8867 40.08 70.063C40.0046 72.3255 39.7676 74.588 39.6059 76.8505C39.4982 78.3588 39.3689 79.8672 39.3042 81.3755C39.1319 85.9328 38.5716 90.4147 37.3971 94.832C37.2678 95.3384 37.1924 95.9632 37.3648 96.4265C38.2699 98.9261 38.2591 101.523 38.3022 104.119C38.313 104.97 38.3992 105.864 38.6578 106.672C39.315 108.73 38.9164 110.616 37.9789 112.458C37.3648 113.643 36.4812 113.815 35.7162 112.738C34.8758 111.553 33.6905 110.4 34.2508 108.655C34.2939 108.515 34.2508 108.332 34.1862 108.181C33.335 106.091 33.7767 103.882 33.5828 101.738C33.4535 100.294 33.2488 98.8399 32.8932 97.4285C32.6023 96.2757 32.5268 95.2091 32.8932 94.0778C33.9276 90.9857 34.4556 87.7967 34.6818 84.5538C34.9512 80.7291 35.0482 76.872 35.5223 73.0689C35.8455 70.4832 35.3714 67.9728 35.3714 65.4302C35.3714 60.5928 35.3068 55.7553 35.2529 50.9071C35.2098 47.2656 35.5869 43.6779 36.4489 40.1333C36.9876 37.9139 37.1924 35.6945 36.7075 33.3996C36.2226 31.1371 36.1364 28.7885 35.5761 26.5475C35.2206 25.1254 35.2098 23.5308 34.1862 22.2918C33.9168 21.9686 33.7983 21.5269 33.6151 21.1283C32.7639 19.2859 32.6669 17.4436 33.3996 15.4936C33.9276 14.0822 34.197 12.5738 34.5956 11.1194C34.8111 10.3221 34.5956 9.65414 34.1323 8.98616C32.7854 7.05765 31.0291 5.6786 28.8095 4.88134C28.2815 4.69818 27.6027 4.64431 27.4196 3.52383L27.4303 3.54538Z" fill="white"/>
<path d="M139.629 7.38088C139.629 7.73642 139.564 8.04886 139.629 8.32898C140.577 12.1429 140.739 16.043 140.674 19.9432C140.642 21.7639 141.062 23.4985 141.741 25.1577C142.355 26.6337 142.678 28.1205 142.657 29.7366C142.635 32.6563 142.7 35.5652 142.161 38.4741C141.86 40.1118 141.935 41.814 141.816 43.4947C141.752 44.3566 141.547 45.2186 141.59 46.0697C141.644 47.4703 141.924 48.8601 141.967 50.2607C142.075 53.1804 142.086 56.1001 142.129 59.0198C142.129 59.4508 142.043 59.8817 142.021 60.3127C141.935 61.9288 141.838 63.5556 141.773 65.1717C141.709 66.6369 141.816 68.0698 142.334 69.4812C143.777 73.4029 143.573 77.4431 143.196 81.5048C142.948 84.1444 142.711 86.784 142.635 89.4236C142.56 92.1924 142.732 94.9721 142.7 97.7409C142.668 100.456 142.808 103.139 143.637 105.757C143.702 105.961 143.702 106.188 143.724 106.403C143.842 107.75 143.885 109.107 144.122 110.422C144.295 111.391 144.09 112.243 143.767 113.104C143.443 113.956 142.786 114.128 142.161 113.503C141.87 113.201 141.601 112.803 141.504 112.393C141.17 111.036 140.89 109.657 140.653 108.278C140.437 106.996 140.448 105.67 140.125 104.431C139.769 103.042 139.608 101.673 139.608 100.251C139.608 97.5901 139.597 94.9182 139.532 92.2571C139.457 89.2619 139.866 86.3315 140.319 83.3902C140.394 82.9162 140.394 82.4206 140.383 81.925C140.362 79.7487 140.286 77.5723 140.319 75.396C140.34 73.7907 140.039 72.2716 139.489 70.7848C138.692 68.6516 138.379 66.4861 138.875 64.2344C138.907 64.0727 138.918 63.9111 138.929 63.7495C139.004 59.7955 139.123 55.8415 139.144 51.8768C139.144 50.3684 138.832 48.8601 138.832 47.3518C138.832 43.6133 138.907 39.8747 138.993 36.1254C139.026 34.6063 139.198 33.098 139.23 31.5897C139.284 29.144 138.649 26.7953 138.196 24.4035C137.808 22.3349 137.022 20.3202 137.453 18.0362C137.733 16.5279 137.14 14.8579 136.914 13.2634C136.838 12.7355 136.58 12.2183 136.591 11.7012C136.666 9.34172 135.955 7.2085 134.877 5.17225C134.705 4.83826 134.522 4.4935 134.393 4.13796C133.843 2.61885 133.067 1.30444 131.526 0.582598C131.311 0.485634 131.128 0.302479 130.708 0.000811919C132.981 -0.0315096 134.543 0.905813 136.084 1.9832C137.862 3.23296 139.694 4.40731 141.515 5.58165C141.827 5.78636 142.204 5.91564 142.56 6.00183C147.053 7.07921 151.525 7.47785 155.975 5.74326C156.761 5.44159 157.655 5.37695 158.496 5.22612C161.491 4.6982 164.444 4.09487 167.019 2.26331C168.15 1.45528 169.443 0.895039 170.844 0.119324C170.876 0.528729 171.016 0.873492 170.898 1.04587C169.939 2.54343 168.926 3.98713 167.967 5.48469C167.741 5.84022 167.59 6.28195 167.558 6.70213C167.396 8.6091 166.803 10.3976 166.038 12.1429C165.543 13.2634 165.424 14.4054 165.392 15.6229C165.316 18.047 165.047 20.4711 164.939 22.906C164.896 23.7571 164.929 24.6621 165.187 25.4594C165.931 27.7542 166.329 30.0813 166.232 32.4839C166.114 35.1019 166.739 37.623 167.084 40.1872C167.461 42.9668 167.515 45.8003 166.717 48.5692C165.866 51.5212 165.683 54.4948 166.06 57.5761C166.405 60.3665 166.922 63.1139 167.407 65.872C167.698 67.5204 167.202 69.298 167.148 71.0219C167.094 72.6272 167.073 74.2432 167.148 75.8593C167.234 77.5831 167.59 79.2962 167.601 81.02C167.622 85.2541 167.461 89.4774 167.493 93.7115C167.525 97.1807 167.536 100.671 167.946 104.108C168.312 107.157 167.601 110.142 167.913 113.169C167.967 113.708 167.633 114.29 167.471 114.85C166.825 114.893 166.308 114.936 165.791 114.968C165.392 114.236 165.004 113.525 164.616 112.814C164.088 111.844 164.217 110.82 164.336 109.797C164.498 108.299 164.681 106.791 164.832 105.293C164.864 104.981 164.875 104.615 164.735 104.356C163.937 102.815 163.819 101.156 163.797 99.4755C163.776 97.0299 163.679 94.5842 163.743 92.1386C163.786 90.5871 164.056 89.0357 164.217 87.4843C164.53 84.4137 164.735 81.3647 164.357 78.2619C164.077 76.0209 164.271 73.7153 164.357 71.442C164.444 69.1903 164.81 67.0032 164.164 64.7084C163.043 60.7329 162.838 56.5957 163.064 52.4693C163.14 51.0364 163.56 49.6035 163.905 48.1921C164.778 44.6368 164.929 41.146 163.474 37.6769C163.108 36.8042 162.978 35.8022 162.86 34.8434C162.644 33.1195 162.472 31.4065 161.567 29.8659C160.942 28.7885 160.813 27.6788 161.082 26.429C161.89 22.6151 162.343 18.758 162.396 14.8471C162.418 13.4896 163.011 12.1321 163.388 10.7854C163.571 10.1282 163.873 9.50332 164.131 8.84612C162.795 8.66297 161.653 8.43672 160.489 8.35053C159.304 8.27511 158.151 8.38285 156.977 8.8138C151.191 10.9686 145.609 10.1282 140.189 7.49939C140.049 7.43475 139.888 7.44552 139.618 7.40243L139.629 7.38088Z" fill="white"/>
<path d="M75.5184 66.7554C75.206 69.5889 74.8073 72.4763 74.6241 75.3745C74.5379 76.7535 74.8612 78.1649 75.0012 79.5655C75.0767 80.2658 75.2275 80.9553 75.2491 81.6449C75.4215 86.6439 75.5292 91.6322 75.7663 96.6312C75.8417 98.2904 76.0356 99.9927 76.4989 101.587C77.3502 104.528 77.1562 107.524 77.0377 110.486C76.9838 111.812 76.1218 113.115 75.5507 114.397C75.3245 114.904 74.8612 114.979 74.3116 114.71C72.8355 113.966 71.6502 111.478 71.7149 109.808C71.7903 107.761 71.6502 105.703 71.4886 103.656C71.3054 101.339 70.8745 99.0338 70.7883 96.7174C70.6482 93.022 70.659 89.3266 70.6697 85.6204C70.6697 83.067 70.3034 80.5567 70.0448 78.0248C69.7754 75.3314 69.9047 72.6164 70.3465 69.9229C70.6805 67.8974 70.9607 65.8504 70.993 63.8034C71.0145 62.1442 70.7883 60.442 70.368 58.8367C69.2367 54.484 69.7862 50.2715 71.0576 46.0589C71.5856 44.292 72.1136 42.5251 72.5661 40.7366C72.9971 39.0128 73.4173 37.2675 72.9432 35.479C72.7601 34.811 72.5661 34.1215 72.2321 33.5182C71.0038 31.3095 70.6051 28.9393 70.7021 26.4613C70.7452 25.3839 70.7452 24.2635 71.0468 23.2507C71.3701 22.1733 71.2731 21.1283 70.8852 20.2448C70.0879 18.424 70.3034 16.6356 70.6266 14.8256C71.0792 12.2614 71.5425 9.71879 71.4347 7.08998C71.3916 5.9695 71.7472 5.65706 72.8139 5.47391C73.3419 5.38772 73.8914 5.32307 74.3871 5.13992C75.3029 4.79516 76.1649 4.83825 77.07 5.19379C77.5549 5.37694 78.1152 5.43081 78.6431 5.40926C79.8176 5.34462 80.9059 5.60319 81.9403 6.09879C83.6104 6.89605 85.2589 7.59635 87.1984 7.60712C88.987 7.60712 90.2369 8.59832 90.7326 10.4299C91.0558 11.6258 91.6484 12.7786 91.7885 13.996C91.9393 15.2027 91.6807 16.4524 91.5838 17.6914C91.5514 18.1224 91.4114 18.5426 91.3898 18.9735C91.2174 23.3585 91.0558 27.7434 90.8942 32.1176C90.808 34.3909 90.711 36.6641 90.6356 38.9266C90.5494 41.5231 90.5386 44.1304 90.3985 46.7269C90.3339 47.8474 90.1076 48.9894 89.7844 50.0668C89.5581 50.8209 89.6874 51.4458 89.9568 52.103C90.0645 52.3508 90.1399 52.6202 90.2692 52.8572C91.6376 55.3028 91.6269 57.9748 91.4545 60.6251C91.3575 62.0257 90.6571 63.297 89.8275 64.4714C89.4719 64.9777 89.2564 65.5919 89.0193 66.1736C88.6961 66.9817 88.4698 67.8328 88.0927 68.6085C87.5755 69.6859 86.7997 70.1276 85.7115 69.7829C84.6986 69.4597 83.5673 69.0933 82.8346 68.3823C80.7227 66.3137 78.3091 66.0874 75.5076 66.7877L75.5184 66.7554ZM84.6986 63.7818C85.5283 62.586 86.3256 61.5624 86.9721 60.442C87.2846 59.9033 87.4893 59.1707 87.3923 58.5781C87.1661 57.0913 86.9613 55.5291 86.3256 54.1931C85.3559 52.1569 85.5283 50.2284 86.1101 48.2137C86.3364 47.438 86.6058 46.6515 86.6597 45.8542C86.8859 42.1696 87.0475 38.4849 87.2092 34.8003C87.3816 30.8463 87.4893 26.8923 87.7048 22.9383C87.8018 21.1606 87.9095 19.3721 88.2867 17.6376C88.7823 15.3427 88.1789 13.3173 87.3816 11.2487C85.1619 11.3887 83.3087 10.4514 81.6817 9.34171C79.3435 7.73641 76.8006 8.54445 74.3009 7.94111C74.3009 11.0009 74.3009 13.8236 74.3116 16.6464C74.3116 16.9588 74.4625 17.282 74.581 17.5729C75.5508 19.9755 75.2922 22.4319 75.0982 24.9314C74.915 27.334 74.6995 29.7581 76.0787 32.0529C77.3717 34.1969 77.598 36.6641 77.0916 39.1313C76.6498 41.2969 76.1326 43.4516 75.6477 45.6172C75.0443 48.246 74.0746 50.8317 74.3763 53.579C74.6672 56.1971 75.1198 58.7936 75.5292 61.5517C76.2296 61.5517 76.9192 61.6055 77.5872 61.5517C79.656 61.3685 81.5847 61.6594 83.2871 62.9523C83.7073 63.2755 84.203 63.5125 84.6878 63.7926L84.6986 63.7818Z" fill="white"/>
<path d="M25.4799 35.6406C25.2752 34.7356 24.9628 33.8414 24.8873 32.9256C24.7365 30.954 23.5081 29.4133 22.9155 27.6357C22.3876 26.0519 21.8057 24.4574 21.4717 22.8305C21.2993 21.9686 21.5579 20.999 21.698 20.094C22.1505 17.0558 22.0212 14.0499 21.2562 11.0655C21.073 10.3437 20.739 10.1713 20.0602 10.0204C17.9914 9.5464 15.9334 9.69723 13.9508 10.2467C11.2356 11.0009 8.56339 11.9166 6.18214 13.5219C5.66495 13.8667 5.40635 14.2115 5.4279 14.8256C5.56798 18.0254 5.69727 21.2145 5.82657 24.4143C5.82657 24.5759 5.84812 24.7375 5.8589 24.8991C5.99897 27.7649 6.11749 30.6416 6.27912 33.5074C6.35454 34.8002 6.67779 36.1147 6.58081 37.386C6.35454 40.6612 5.88045 43.9149 5.32015 47.1578C4.72753 50.6054 3.84399 54.0315 4.00562 57.5977C4.13492 60.5281 4.57669 63.3832 5.15853 66.2383C5.62185 68.5115 6.04207 70.7848 6.05284 73.1227C6.05284 74.6311 6.26834 76.1394 6.37609 77.6478C6.53771 79.9965 6.16059 82.2805 5.6434 84.5646C5.33093 85.9328 5.14775 87.3334 4.98613 88.7233C4.80296 90.2855 5.3848 91.6968 5.99897 93.1082C7.28118 96.0387 8.54184 98.9692 9.77018 101.921C10.5136 103.71 11.6989 105.175 12.8841 106.662C13.2181 107.082 13.6276 107.211 14.1879 107.028C16.0735 106.414 17.9806 106.349 19.9524 106.716C20.8037 106.877 21.7518 106.522 22.7431 106.382C23.9284 105.207 24.3486 103.634 24.2947 101.997C24.2085 99.454 24.5749 97.0406 25.6739 94.7243C26.1264 93.7546 26.4174 92.6772 26.5682 91.6106C26.9669 88.8418 27.247 86.0513 27.5703 83.2178C27.7858 84.1982 28.1198 85.1679 28.1844 86.1591C28.4215 89.6713 28.734 93.1621 28.1629 96.7066C27.8289 98.8291 28.012 101.049 28.0767 103.214C28.1413 105.369 27.5487 107.276 26.2988 109.01C26.051 109.366 25.8463 109.754 25.62 110.12C24.618 111.715 22.5384 112.264 20.9761 111.187C19.4568 110.152 17.9375 110.368 16.3429 110.81C15.3623 111.079 14.3603 111.273 13.3582 111.467C12.0114 111.725 11.0632 110.993 10.2766 110.055C8.24014 107.631 6.59159 105.024 5.6434 101.932C4.95381 99.6694 3.85477 97.5147 2.79883 95.3707C1.90452 93.5499 1.23647 91.6537 1.03175 89.6606C0.924002 88.5616 1.17182 87.3981 1.37655 86.2884C1.68902 84.5969 2.06614 82.9054 2.48636 81.2354C2.85271 79.781 2.83116 78.3481 2.47558 76.9044C2.40016 76.5919 2.37861 76.2579 2.38939 75.9347C2.56178 72.0992 1.69979 68.4038 0.956327 64.6868C0.665405 63.2108 0.536107 61.6917 0.352934 60.1941C0.23441 59.2245 0.0727869 58.2656 0.0189125 57.296C-0.121161 54.5702 0.546882 51.9306 1.03175 49.2695C1.54895 46.4037 2.30319 43.5594 2.57256 40.672C2.87426 37.386 2.83116 34.0676 2.80961 30.7601C2.78806 28.1097 2.76651 25.427 2.41094 22.809C1.92607 19.2859 2.24931 15.7521 2.05536 12.2399C2.01226 11.518 2.22776 11.0009 2.92813 10.6669C6.23602 9.06158 9.5439 7.40241 13.2181 6.80985C15.9765 6.36812 18.7349 6.62669 21.3747 7.60711C22.463 8.01652 23.1849 8.803 23.4974 10.0528C24.0684 12.3476 24.8981 14.5778 25.4692 16.8726C25.717 17.8422 25.6954 18.9304 25.5877 19.9324C25.4369 21.3114 25.0597 22.6689 24.8658 24.048C24.8011 24.5005 25.0166 24.9853 25.1244 25.4486C25.4153 26.763 25.8571 28.0666 25.9864 29.3918C26.1372 30.954 26.0402 32.5377 26.0079 34.1107C26.0079 34.6063 25.8678 35.1127 25.7924 35.6083C25.6954 35.6083 25.5985 35.6083 25.5015 35.6083L25.4799 35.6406Z" fill="white"/>
</svg>
